<!--?xml version="1.0" standalone="no"?-->
              <svg id="sw-js-blob-svg" viewBox="0 0 100 100" xmlns="http://www.w3.org/2000/svg" version="1.1">
                    <defs> 
                        <linearGradient id="sw-gradient" x1="0" x2="1" y1="1" y2="0">
                            <stop id="stop1" stop-color="rgba(248, 117, 55, 1)" offset="0%"></stop>
                            <stop id="stop2" stop-color="rgba(251, 168, 31, 1)" offset="100%"></stop>
                        </linearGradient>
                    </defs>
                <path fill="url(#sw-gradient)" d="M23.9,-29C28.8,-24.4,29.1,-14.8,31.1,-5.2C33.1,4.4,36.9,13.9,34.1,20.5C31.3,27,21.8,30.5,12.8,33C3.7,35.4,-5.1,36.6,-12.5,34C-19.9,31.4,-26,25,-29.6,17.6C-33.3,10.2,-34.6,1.9,-33.3,-5.9C-31.9,-13.8,-28,-21.2,-22,-25.6C-16,-30,-8,-31.3,0.7,-32.2C9.5,-33,19,-33.5,23.9,-29Z" width="100%" height="100%" transform="translate(50 50)" stroke-width="0" style="transition: all 0.3s ease 0s;"></path>
              </svg>